<?xml version="1.0" encoding="UTF-8" standalone="no"?>
<!-- Created with Inkscape (http://www.inkscape.org/) -->

<svg
   width="96mm"
   height="96mm"
   viewBox="0 0 96 96"
   version="1.1"
   id="svg1"
   xml:space="preserve"
   inkscape:version="1.4 (e7c3feb100, 2024-10-09)"
   sodipodi:docname="favicon.svg"
   xmlns:inkscape="http://www.inkscape.org/namespaces/inkscape"
   xmlns:sodipodi="http://sodipodi.sourceforge.net/DTD/sodipodi-0.dtd"
   xmlns="http://www.w3.org/2000/svg"
   xmlns:svg="http://www.w3.org/2000/svg"><sodipodi:namedview
     id="namedview1"
     pagecolor="#ffffff"
     bordercolor="#000000"
     borderopacity="0.25"
     inkscape:showpageshadow="2"
     inkscape:pageopacity="0.0"
     inkscape:pagecheckerboard="0"
     inkscape:deskcolor="#d1d1d1"
     inkscape:document-units="mm"
     inkscape:zoom="1.2778678"
     inkscape:cx="118.94814"
     inkscape:cy="49.300873"
     inkscape:window-width="1920"
     inkscape:window-height="1060"
     inkscape:window-x="0"
     inkscape:window-y="0"
     inkscape:window-maximized="1"
     inkscape:current-layer="layer1"
     inkscape:clip-to-page="false" /><defs
     id="defs1" /><g
     inkscape:label="Layer 1"
     inkscape:groupmode="layer"
     id="layer1"
     transform="translate(-53.489708,-103.24612)"><circle
       style="fill:none;fill-opacity:1;stroke:none;stroke-width:3.81;stroke-linecap:round;stroke-linejoin:round;stroke-miterlimit:5;stroke-dasharray:none;stroke-opacity:1;paint-order:normal"
       id="path13"
       cx="101.48971"
       cy="151.24612"
       r="48"
       inkscape:label="margin circle" /><path
       id="path6"
       style="fill:#ff0000;fill-opacity:1;stroke:#a6a6a6;stroke-width:0.264999;stroke-linecap:round;stroke-linejoin:round;stroke-miterlimit:5;paint-order:stroke markers fill"
       d="m 120.26166,106.97801 -4.60276,4.61624 -5.0081,5.02218 1.99936,0.67681 c 3.77838,1.27881 7.57301,3.36051 10.69543,5.8675 1.83989,1.47724 4.71994,4.38423 5.97356,6.02954 2.34958,3.08371 4.5624,7.28318 5.67816,10.77642 0.36133,1.13127 0.69563,2.05777 0.74291,2.05909 0.0473,0.001 2.30154,-2.21793 5.00944,-4.93109 l 4.74535,-4.75438 a 48.074154,48.189814 0 0 0 -25.23335,-25.36231 z"
       inkscape:label="red" /><path
       style="display:inline;fill:#00fdde;stroke-width:1"
       d="m 97.440864,186.73471 c -6.30151,-0.76667 -12.40498,-3.20094 -17.405819,-6.94204 -1.671832,-1.25069 -4.956618,-4.43741 -6.340559,-6.15127 -6.885575,-8.52705 -9.496618,-20.334 -6.836668,-30.91492 1.646464,-6.54941 4.776367,-12.08542 9.482277,-16.77175 6.142819,-6.11726 13.937571,-9.67515 22.548,-10.29198 6.003175,-0.43005 12.085055,0.73597 17.632285,3.38045 3.87776,1.84862 7.10745,4.18506 10.19889,7.37813 2.95512,3.05227 4.72234,5.58866 6.52624,9.36677 2.27978,4.7748 3.33086,9.01322 3.51813,14.18679 0.16273,4.49563 -0.36926,8.20653 -1.79027,12.48823 -4.22376,12.72675 -14.81071,21.76998 -28.12344,24.0226 -1.95489,0.33078 -7.525218,0.47819 -9.409066,0.24899 z m 8.702966,-17.88811 c 6.26628,-1.73863 10.9997,-6.58635 12.76862,-13.07695 0.3317,-1.21708 0.38925,-1.86725 0.38925,-4.39747 0,-2.53023 -0.0576,-3.18041 -0.38925,-4.39748 -0.89996,-3.30219 -2.52929,-6.18356 -4.76236,-8.42201 -4.42955,-4.44017 -10.93586,-6.27035 -16.908446,-4.75623 -3.358371,0.8514 -5.70803,2.14927 -8.190904,4.52438 -5.69502,5.44787 -7.183357,14.12054 -3.633554,21.17305 2.425704,4.81922 6.813293,8.30726 11.936558,9.48929 1.914168,0.44164 1.950548,0.44464 4.617406,0.38072 2.06032,-0.0494 2.83027,-0.14484 4.17268,-0.5173 z"
       id="path3"
       inkscape:label="cyan" /><path
       style="display:inline;fill:#9c00fd;fill-opacity:1;stroke-width:1"
       d="m 106.14383,168.8466 c 6.26628,-1.73863 10.9997,-6.58635 12.76862,-13.07695 0.3317,-1.21708 0.38925,-1.86725 0.38925,-4.39747 0,-2.53023 -0.0576,-3.18041 -0.38925,-4.39748 -0.89996,-3.30219 -2.52929,-6.18356 -4.76236,-8.42201 -4.42955,-4.44017 -10.93586,-6.27035 -16.908446,-4.75623 -3.358371,0.8514 -5.70803,2.14927 -8.190904,4.52438 -5.69502,5.44787 -7.183357,14.12054 -3.633554,21.17305 2.425704,4.81922 6.813293,8.30726 11.936558,9.48929 1.914168,0.44164 1.950548,0.44464 4.617406,0.38072 2.06032,-0.0494 2.83027,-0.14484 4.17268,-0.5173 z"
       id="path5"
       inkscape:label="sac tim toi yeu" /><path
       id="path8"
       style="fill:none;stroke:#b2b2b2;stroke-width:1.27;stroke-linecap:round;stroke-linejoin:miter;stroke-dasharray:none;stroke-opacity:1;paint-order:normal"
       d="m 127.41361,151.12504 -51.847733,0.24218 m 25.803033,-26.10728 0.2416,51.97238"
       inkscape:label="ruler-global" /><path
       id="path9"
       style="fill:none;stroke:#b2b2b2;stroke-width:3.81;stroke-linecap:round;stroke-linejoin:miter;stroke-dasharray:none;stroke-opacity:1;paint-order:normal"
       d="m 107.65707,151.2173 -12.33469,0.0576 m 6.1386,-6.21096 0.0575,12.36431"
       inkscape:label="ruler-local" /></g></svg>
