<?xml version="1.0" standalone="no"?>
<!DOCTYPE svg PUBLIC "-//W3C//DTD SVG 20010904//EN"
 "http://www.w3.org/TR/2001/REC-SVG-20010904/DTD/svg10.dtd">
<svg version="1.0" xmlns="http://www.w3.org/2000/svg"
 width="1000.000000pt" height="1000.000000pt" viewBox="0 0 1000.000000 1000.000000"
 preserveAspectRatio="xMidYMid meet">
<metadata>
Created by potrace 1.14, written by Peter Selinger 2001-2017
</metadata>
<g transform="translate(0.000000,1000.000000) scale(0.100000,-0.100000)"
fill="#000000" stroke="none">
<path d="M6615 9434 c-448 -451 -564 -563 -580 -558 -50 13 -224 52 -260 59
-175 32 -270 45 -440 62 -181 18 -660 8 -815 -17 -30 -5 -80 -12 -110 -15 -82
-10 -238 -42 -390 -80 -353 -89 -690 -226 -1005 -409 -109 -63 -283 -172 -295
-186 -3 -3 -27 -21 -55 -40 -52 -35 -55 -38 -92 -68 -12 -10 -34 -27 -49 -38
-28 -20 -95 -77 -126 -106 -10 -10 -20 -18 -23 -18 -2 0 -24 -19 -48 -42 -25
-24 -64 -61 -88 -84 -89 -83 -268 -278 -330 -359 -13 -17 -26 -32 -29 -35 -15
-14 -133 -176 -186 -255 -234 -347 -406 -717 -525 -1125 -38 -130 -91 -362
-103 -445 -3 -22 -8 -51 -10 -65 -2 -14 -7 -47 -10 -75 -3 -27 -8 -60 -10 -73
-28 -136 -28 -659 -1 -904 8 -71 42 -286 60 -382 31 -159 122 -458 197 -646
46 -116 205 -448 264 -550 37 -64 228 -350 256 -382 13 -15 38 -47 55 -71 18
-24 42 -55 53 -68 66 -77 121 -139 162 -182 27 -27 48 -51 48 -53 0 -7 193
-189 274 -258 26 -22 58 -50 70 -60 42 -38 302 -228 331 -243 17 -9 32 -19 35
-22 4 -6 198 -122 255 -154 117 -64 381 -187 455 -212 3 -1 16 -6 31 -12 56
-24 241 -84 359 -117 187 -52 375 -91 545 -111 28 -3 64 -8 80 -10 189 -27
719 -27 875 -1 14 2 51 7 84 11 63 7 70 8 166 25 36 7 76 14 90 16 14 2 54 11
91 20 36 8 74 17 85 19 10 2 19 4 19 5 0 1 7 3 15 5 33 6 181 49 275 80 235
76 584 236 773 353 46 29 88 52 93 52 5 0 9 4 9 9 0 5 14 14 31 21 17 7 36 18
42 25 7 6 35 26 62 45 50 33 250 185 271 205 6 5 32 28 58 49 109 90 329 309
416 413 118 141 196 242 250 323 8 12 20 28 25 34 20 22 107 159 144 227 13
24 27 46 30 49 13 10 170 328 210 425 23 55 46 109 51 120 18 40 110 322 134
415 42 159 89 395 102 515 3 33 8 68 10 78 19 101 26 600 11 767 -9 109 -35
308 -48 374 -6 28 -12 60 -14 71 -10 65 -37 183 -46 204 -9 22 27 61 556 590
l565 565 0 1433 0 1433 -1412 -1 -1413 -1 -560 -564z m-1273 -2463 c270 -47
543 -151 737 -279 34 -23 66 -42 71 -42 5 0 10 -3 12 -7 2 -5 39 -35 82 -68
97 -74 230 -204 318 -310 225 -275 387 -638 433 -975 4 -30 10 -66 12 -80 9
-49 10 -336 3 -405 -20 -178 -49 -310 -101 -466 -46 -137 -152 -355 -216 -446
-13 -17 -23 -34 -23 -38 0 -7 -53 -78 -77 -103 -7 -7 -13 -17 -13 -20 0 -4
-31 -40 -68 -80 -37 -40 -67 -72 -65 -72 2 0 -67 -64 -113 -105 -266 -238
-637 -412 -1004 -471 -105 -17 -189 -22 -345 -19 -99 2 -196 6 -215 10 -164
29 -216 40 -293 61 -120 34 -272 95 -394 159 -101 54 -252 152 -286 187 -10
10 -22 18 -27 18 -9 0 -246 233 -286 280 -11 14 -33 43 -50 65 -16 22 -32 42
-36 43 -5 2 -8 8 -8 14 0 6 -13 27 -30 48 -17 21 -30 40 -30 43 0 4 -11 23
-25 43 -69 101 -198 416 -227 549 -46 219 -53 281 -53 485 0 146 5 225 19 310
3 14 7 41 10 60 3 19 10 50 15 68 5 18 10 33 9 35 -3 16 71 249 83 262 5 5 9
15 9 22 0 19 77 178 122 252 21 34 38 65 38 67 0 5 92 137 105 150 6 6 27 33
48 60 59 78 240 251 321 309 16 11 33 25 40 30 6 6 40 29 76 51 287 181 558
280 870 319 147 18 406 11 552 -14z"/>
</g>
</svg>
