<?xml version="1.0" standalone="no"?>
<svg xmlns="http://www.w3.org/2000/svg" xmlns:xlink="http://www.w3.org/1999/xlink" width="515pt" height="222pt" viewBox="0.00 0.00 515.08 221.60">
<g id="graph0" class="graph" transform="translate(4,217.60000610351562) scale(1)" data-name="G">

<polygon fill="white" stroke="transparent" points="-4,4 -4,-217.6 511.08,-217.6 511.08,4 -4,4" style=""/>
<!-- main -->
<g id="node1" class="node" pointer-events="visible" data-name="main">

<ellipse fill="none" stroke="black" cx="447.98" cy="-106.8" rx="37.68" ry="18" style=""/>
<text text-anchor="middle" x="447.98" y="-102.6" font-family="Times,serif" font-size="14.00" style="">main.o</text>
</g>
<!-- example -->
<g id="node9" class="node" pointer-events="visible" data-name="example">

<ellipse fill="none" stroke="black" cx="207.98" cy="-18" rx="56.19" ry="18" style=""/>
<text text-anchor="middle" x="207.98" y="-13.8" font-family="Times,serif" font-size="14.00" style="">example.elf</text>
</g>
<!-- main&#45;&gt;example -->
<g id="edge4" class="edge" data-name="main-&gt;example">

<path fill="none" stroke="black" d="M418.55,-95.16C377.33,-80.25 302.02,-53.01 253.53,-35.47" style=""/>
<polygon fill="black" stroke="black" points="254.51,-32.1 243.91,-31.99 252.12,-38.69 254.51,-32.1" style=""/>
<text text-anchor="middle" x="369.81" y="-58.2" font-family="Times,serif" font-size="14.00" style="">linking</text>
</g>
<!-- foo1 -->
<g id="node2" class="node" pointer-events="visible" data-name="foo1">

<ellipse fill="none" stroke="black" cx="35.98" cy="-106.8" rx="35.96" ry="18" style=""/>
<text text-anchor="middle" x="35.98" y="-102.6" font-family="Times,serif" font-size="14.00" style="">foo1.o</text>
</g>
<!-- foo1&#45;&gt;example -->
<g id="edge5" class="edge" data-name="foo1-&gt;example">

<path fill="none" stroke="black" d="M60.62,-93.36C89.24,-78.92 136.76,-54.94 170.08,-38.13" style=""/>
<polygon fill="black" stroke="black" points="171.72,-41.22 179.07,-33.59 168.57,-34.97 171.72,-41.22" style=""/>
</g>
<!-- foo2 -->
<g id="node3" class="node" pointer-events="visible" data-name="foo2">

<ellipse fill="none" stroke="black" cx="125.98" cy="-106.8" rx="35.96" ry="18" style=""/>
<text text-anchor="middle" x="125.98" y="-102.6" font-family="Times,serif" font-size="14.00" style="">foo2.o</text>
</g>
<!-- foo2&#45;&gt;example -->
<g id="edge6" class="edge" data-name="foo2-&gt;example">

<path fill="none" stroke="black" d="M140.64,-90.28C153.04,-77.16 171,-58.14 185.26,-43.05" style=""/>
<polygon fill="black" stroke="black" points="188.01,-45.24 192.33,-35.57 182.92,-40.43 188.01,-45.24" style=""/>
</g>
<!-- crt -->
<g id="node4" class="node" pointer-events="visible" data-name="crt">

<ellipse fill="none" stroke="black" cx="207.98" cy="-106.8" rx="27.84" ry="18" style=""/>
<text text-anchor="middle" x="207.98" y="-102.6" font-family="Times,serif" font-size="14.00" style="">crt.a</text>
</g>
<!-- crt&#45;&gt;example -->
<g id="edge7" class="edge" data-name="crt-&gt;example">

<path fill="none" stroke="black" d="M207.98,-88.65C207.98,-76.52 207.98,-60.02 207.98,-46.12" style=""/>
<polygon fill="black" stroke="black" points="211.48,-46.11 207.98,-36.11 204.48,-46.11 211.48,-46.11" style=""/>
</g>
<!-- dll -->
<g id="node5" class="node" pointer-events="visible" data-name="dll">

<ellipse fill="none" stroke="black" cx="322.98" cy="-106.8" rx="69.53" ry="18" style=""/>
<text text-anchor="middle" x="322.98" y="-102.6" font-family="Times,serif" font-size="14.00" style="">thư viện động</text>
</g>
<!-- dll&#45;&gt;example -->
<g id="edge8" class="edge" data-name="dll-&gt;example">

<path fill="none" stroke="black" d="M301.35,-89.47C283.25,-75.81 257.24,-56.18 237.27,-41.11" style=""/>
<polygon fill="black" stroke="black" points="239.22,-38.19 229.13,-34.96 235,-43.78 239.22,-38.19" style=""/>
</g>
<!-- mainc -->
<g id="node6" class="node" pointer-events="visible" data-name="mainc">

<ellipse fill="none" stroke="black" cx="447.98" cy="-195.6" rx="37.09" ry="18" style=""/>
<text text-anchor="middle" x="447.98" y="-191.4" font-family="Times,serif" font-size="14.00" style="">main.c</text>
</g>
<!-- mainc&#45;&gt;main -->
<g id="edge1" class="edge" data-name="mainc-&gt;main">

<path fill="none" stroke="black" d="M447.98,-177.45C447.98,-165.32 447.98,-148.82 447.98,-134.92" style=""/>
<polygon fill="black" stroke="black" points="451.48,-134.91 447.98,-124.91 444.48,-134.91 451.48,-134.91" style=""/>
<text text-anchor="middle" x="477.53" y="-147" font-family="Times,serif" font-size="14.00" style="">biên dịch</text>
</g>
<!-- foo1c -->
<g id="node7" class="node" pointer-events="visible" data-name="foo1c">

<ellipse fill="none" stroke="black" cx="35.98" cy="-195.6" rx="35.38" ry="18" style=""/>
<text text-anchor="middle" x="35.98" y="-191.4" font-family="Times,serif" font-size="14.00" style="">foo1.c</text>
</g>
<!-- foo1c&#45;&gt;foo1 -->
<g id="edge2" class="edge" data-name="foo1c-&gt;foo1">

<path fill="none" stroke="black" d="M35.98,-177.45C35.98,-165.32 35.98,-148.82 35.98,-134.92" style=""/>
<polygon fill="black" stroke="black" points="39.48,-134.91 35.98,-124.91 32.48,-134.91 39.48,-134.91" style=""/>
</g>
<!-- foo2c -->
<g id="node8" class="node" pointer-events="visible" data-name="foo2c">

<ellipse fill="none" stroke="black" cx="125.98" cy="-195.6" rx="35.38" ry="18" style=""/>
<text text-anchor="middle" x="125.98" y="-191.4" font-family="Times,serif" font-size="14.00" style="">foo2.c</text>
</g>
<!-- foo2c&#45;&gt;foo2 -->
<g id="edge3" class="edge" data-name="foo2c-&gt;foo2">

<path fill="none" stroke="black" d="M125.98,-177.45C125.98,-165.32 125.98,-148.82 125.98,-134.92" style=""/>
<polygon fill="black" stroke="black" points="129.48,-134.91 125.98,-124.91 122.48,-134.91 129.48,-134.91" style=""/>
</g>
</g>
</svg>